<?xml version="1.0" standalone="no"?>
<!DOCTYPE svg PUBLIC "-//W3C//DTD SVG 20010904//EN"
 "http://www.w3.org/TR/2001/REC-SVG-20010904/DTD/svg10.dtd">
<svg version="1.0" xmlns="http://www.w3.org/2000/svg"
 width="270.000000pt" height="270.000000pt" viewBox="0 0 270.000000 270.000000"
 preserveAspectRatio="xMidYMid meet">
<metadata>
Created by potrace 1.14, written by Peter Selinger 2001-2017
</metadata>
<g transform="translate(0.000000,270.000000) scale(0.100000,-0.100000)"
fill="#000000" stroke="none">
<path d="M890 2425 c-178 -40 -354 -135 -395 -214 -11 -23 -27 -33 -69 -45
-73 -21 -163 -84 -238 -165 -121 -131 -188 -284 -188 -428 0 -95 48 -286 98
-393 40 -85 130 -183 201 -219 70 -36 185 -61 283 -61 53 0 88 -4 88 -10 0 -6
18 -30 40 -54 22 -23 36 -47 32 -51 -4 -5 -2 -5 5 -1 6 3 28 -5 48 -18 63 -43
144 -68 234 -74 83 -5 85 -5 152 -57 37 -29 65 -56 61 -60 -4 -5 -2 -5 5 -1 7
4 29 -2 50 -12 21 -11 62 -25 92 -31 40 -9 68 -23 110 -59 135 -116 243 -175
378 -207 89 -22 210 -17 266 10 91 43 178 174 213 317 16 63 21 71 70 108 62
47 129 131 171 215 40 79 93 304 100 419 13 212 -79 439 -276 680 -106 131
-257 237 -383 270 -30 8 -77 28 -105 45 -174 107 -411 139 -622 82 l-74 -20
-41 22 c-53 27 -210 33 -306 12z"/>
</g>
</svg>
